/* XPM */
static char *_b49bd01586f4027a83aa9f503e6cb3bSgC7FEScxwKi1Db4[] = {
/* columns rows colors chars-per-pixel */
"40 40 182 2 ",
"   c #695A47",
".  c #635B4E",
"X  c #6E5C4E",
"o  c #725640",
"O  c #735E50",
"+  c #74634F",
"@  c #7D644F",
"#  c #6B6355",
"$  c #6F6858",
"%  c #756354",
"&  c #7C6653",
"*  c #776A57",
"=  c #7E6A53",
"-  c #74665A",
";  c #7B6659",
":  c #756B5B",
">  c #7C6B5B",
",  c #7E725D",
"<  c #7B6F62",
"1  c #767060",
"2  c #7C7364",
"3  c #7F766A",
"4  c #826554",
"5  c #836C55",
"6  c #8A6A56",
"7  c #836C5C",
"8  c #8B6E5C",
"9  c #936E57",
"0  c #906F5E",
"q  c #837256",
"w  c #8C7457",
"e  c #85725C",
"r  c #8C745C",
"t  c #8C7A5D",
"y  c #907653",
"u  c #927855",
"i  c #9A7B55",
"p  c #95735B",
"a  c #98745A",
"s  c #957B5D",
"d  c #9B7B5C",
"f  c #A3755E",
"g  c #866F61",
"h  c #8B6F60",
"j  c #837362",
"k  c #8B7464",
"l  c #837865",
"z  c #8D7A63",
"x  c #85766A",
"c  c #8D766B",
"v  c #847A6B",
"b  c #8B7B6B",
"n  c #927563",
"m  c #9A7662",
"M  c #947B63",
"N  c #9B7D63",
"B  c #937C6B",
"V  c #9B7D6B",
"C  c #877E74",
"Z  c #897F73",
"A  c #A07E65",
"S  c #AC7F6A",
"D  c #A07F70",
"F  c #97805E",
"G  c #9E815F",
"H  c #A0825E",
"J  c #968264",
"K  c #9C8365",
"L  c #9E8864",
"P  c #95826B",
"I  c #9C836B",
"U  c #9D8A6C",
"Y  c #8D8273",
"T  c #938273",
"R  c #9B8671",
"E  c #9D8A72",
"W  c #978C7C",
"Q  c #9B8D7B",
"!  c #9D9073",
"~  c #9D917E",
"^  c #A38465",
"/  c #AB8564",
"(  c #A28866",
")  c #AC8B66",
"_  c #A3856A",
"`  c #A8876A",
"'  c #A48B6C",
"]  c #AB8C6C",
"[  c #B78D67",
"{  c #B38E6C",
"}  c #A7906E",
"|  c #AB926D",
" . c #B3926E",
".. c #BA936C",
"X. c #A28572",
"o. c #A98675",
"O. c #A48C73",
"+. c #AB8D72",
"@. c #A38C7A",
"#. c #AA8C78",
"$. c #B38472",
"%. c #B28E74",
"&. c #BA8C74",
"*. c #A59274",
"=. c #AD9374",
"-. c #A5927B",
";. c #AC947B",
":. c #A4987E",
">. c #AE9A7C",
",. c #B39474",
"<. c #BB9573",
"1. c #B49975",
"2. c #BC9A75",
"3. c #B3967A",
"4. c #BA967A",
"5. c #B49B7C",
"6. c #BB9C7B",
"7. c #B6A177",
"8. c #B6A27C",
"9. c #BCA27D",
"0. c #C39B74",
"q. c #CA9D75",
"w. c #C29E7B",
"e. c #C4A17C",
"r. c #CAA47D",
"t. c #C5A87C",
"y. c #CAAE7F",
"u. c #D2AA7E",
"i. c #A49482",
"p. c #AC9481",
"a. c #A69B87",
"s. c #AC9A82",
"d. c #AB9C89",
"f. c #B29682",
"g. c #B59D82",
"h. c #BB9E83",
"j. c #B79C89",
"k. c #AAA08D",
"l. c #B6A383",
"z. c #BCA384",
"x. c #BDA985",
"c. c #B4A48C",
"v. c #BDA48A",
"b. c #BBA98D",
"n. c #B3A491",
"m. c #C19E82",
"M. c #C3A583",
"N. c #CAA483",
"B. c #C4AA85",
"V. c #CBAB84",
"C. c #C4A68A",
"Z. c #C4AB8B",
"A. c #CCAE8A",
"S. c #D3AD84",
"D. c #DAAF83",
"F. c #D0AC89",
"G. c #CEB186",
"H. c #C6B18C",
"J. c #CDB18C",
"K. c #D3B386",
"L. c #DBB185",
"P. c #D2B38C",
"I. c #DAB489",
"U. c #D4BA8B",
"Y. c #D9BC8F",
"T. c #C1A790",
"R. c #C4AD93",
"E. c #C5AF98",
"W. c #C4B294",
"Q. c #CCB593",
"!. c #CCBB9F",
"~. c #D5B491",
"^. c #DAB492",
"/. c #D4B993",
"(. c #DABB94",
"). c #D5BD98",
"_. c #DCBD99",
"`. c #DAC194",
"'. c #DDC19C",
"]. c #E4C197",
"[. c #E2C69E",
"{. c #E2CA9E",
/* pixels */
"+ z , : v $ 1 3 1 x # X x : e r & , % $ 2 $ 3 2 : 3 . < 2 2 j , = = * : : # 2 $ ",
"s.s.a.k.k.l Y W i.T < Z n.s.s.-.O.R Y Y W x Y , v Y 2 W ~ E -.>.g.-.i.a.W : v 3 ",
"5.;.>.b.c.B E ;.;._ k R W.v.g.;.>.+.@.-.@.7 B c @.@.k @.f.>.>.;.5.>.>.c.~ , v P ",
"U O.E E *.t N K N n w M g.@.+.+.o.O.Q R T r I J n n 4 M @.' ' N O.+.P E ! t J e ",
"t U F , ! J J L ^ I V k M * 5 z z j e j P J L K d I M K I r z M 8 n 4 z P P @.M ",
"b.!.l.! H.l.>.C.z.z.g.>.-.P R -.n j b Q b.>.1.9.6.1.>.l.l.U O.;.o.#.n @.s.@.;.o.",
"W.Q.l.} H.B.6.A.C.h.g.>.:.P P -.M B B E b.>.| t.P.M.z.B.H.O.O.#._ V 4 @.g.O.;.=.",
"1.l.=.F =.| )  ./ K _ U O.t M *.;.O.r 7 g.=.( ) %.<.5.=.3.M N _ A a o J ;.' +.] ",
"d i i ( M.) i { ] ` ^ n g.J N O.o.%.@.V _ n o._ m _ 9 _ o._ _ ` ^ ` ` _ O.w N N ",
"N.N.V.A.(.6.{ e.w.M.,.M R.l.;.3.6.,.V V X.M o.o.V 0 4 j.T.K s ,.%.%.g.v.h.m m p ",
"^.^._._.(.6.1.e.,.g.O.N W.R.l.z.6.4.+.;.p.I I m 0 8 4 j.b._ L 3.h.6.z.T.g.M A 9 ",
"0.<.%.{ 1.G d H d d s s O.M K ( ^ ' N B M r K a n V r V _ d K m ` %.` ' ^ a S a ",
"[ [ H [ U.V.r.V.V.t.M.z.8.(  .6.6.w.+.3.1.=.9.9.6.6.=.6.6.^ =.] ^ ,.I =.M.9.e.2.",
"w.q.)  .{.`.K.P.P.(.B.6.6.' ,.6.,.,._ g.8.=.1.1.9.9.6.J.Q.| 1.{ ` ,.u 6.'./.G.V.",
"&.,.^ ,.).P.P.P.F.~.z.6.5.+.3.5.3.=.K >.>.>.h.B.6.M.C.A.A.| 6.] +.;.r 5.).H.B.t.",
"%. .)  .M.|  .) <.,.] 3.' K +.^ N ' B >.O.( ] +.+.,.+.=.3.K 1.,.] ;.t *.*.L ^ i ",
"u.r.D.S.e.<./ &.f S 9 A g.] 2.<.] +.3.6.5.} L 1.] 4.^ 3.z.=.] ' ] =.>.O.} F } 1.",
"q.q.0.0.w.w.%.&.$.S m ` /.B.V.V.6.%.4.C.H.9.] 5.6.C.=.g.z.=.+.] +.O.;.@.*.*.Z.Q.",
"N.N.2.w.w.4.,.%.$.X.M J W.Z.8.B.4.5.g.l.7.! } 9.3.6.U *.>.U E L U _ -.@.P P l.h.",
"&.&.^ { 1.' ,.,.$.+.' I >.U ( ' ' ( F L | } | 2.' ,.L U -.J *.E K I U E P P ' ( ",
"&.&.H q.P.e.G.Y.P.~.J./.x.^ 5.1.=.] L 9.`.U.U.u.u.K.V.J.A.L 5.C.~.B.( O.>.5.] G ",
"&.&./ w.U.t.y.K.I.P.H.).B.K M.5.>.O.L H.'.U.u.L.D.D.I.(.H.y =.B.'.P._ L >.z.6.6.",
"o.%.^ 1.B.7.7.9.z.8.6.z.5.U z.3.;.E t 5.Q.9.t.e.e.w.e.C.C.M ;.h.v.v.U U I ' O.=.",
"%.3.,.,.8.| | =.' ' =.K L ' 1.' N ;.O.*.| u ( ( ^ / K s =.N f.I M V k E U E ( _ ",
"].^.B.| 7.C.' ] ' ` o.N 2.w.<.e.{ { w.M.9. .%.,.%.] =.r ;._ m A n V n @.o.^ M.` ",
"K.K.G.B.B.8.+.,.;.o.' ^ m.V.e.w.r.0.e.N.e.1.^ +.4.l.' s U 4 ` m 6 M 8 n V N ] =.",
" .,.| 5.=.s n K s N s M +.] +.=.+.,.5.3.,.^ d 4.^ o.r z R 4 @.n j B B j k z K K ",
"1.=.L 5.x.=.5.8.5.z.5.g.m.I o.O.I O.s ' z.1.<.w.4.+.*.>.s.b -.T @.R T :.-.*.l.8.",
"o.4.K 5.).G.G.U.U.U.G./.~.^ _ U B *.r 3.'.S.I.D.L.K.'.'.Z.s >.;.E t 5 l.H.1.G.G.",
"` 1.d ] P.V.G.Y.U.U.G.U.~.` ' U 5 E s l.`.V.I.L.u.I.U.'.Q.w 3.U n U q 1.`.B.`.`.",
"K ' s K g.3.| t.7.7.9.8.5.J U P J J t *.x.8.2.2.e.9.8.x.b.J ;.n e E z E l.8.A.8.",
"6.6.1.z.Z.5.( ' } } ' ' 6.z.x.>.>.=.5.>.*.L G 5.) K *.t L L ;.*.-.@.E i.*.J L L ",
"S.S.V.F.V.A.a %.,.%.+.N 9.G.G././.G.z.8.l.' 1.^.N.A.3.K b.5.L K ;.E s.O.g.M 5.^ ",
"e.V.A.N.t.2.a +.&.4.%.V 6.M.N.B.B.z.l.>.*.F 2.~.V.M.K w l.g.O.B I P R M #.B f.o.",
"_ O.o.M *.K w N a s M r E U U U @.*.R Q *.7 ' 1.+.( q 5 @.B B c b Y b b B k V B ",
"n n 6 5 5.=.3.3.' =.#.E -.z j x 7 B ; k >.L 3.] ` ] o.;.p.x c c ; g % k c k h h ",
"X.X.0 8 C.e.m.4.<.<.h.f.p.k k V V #.4 w C.M.V.2.2.w.z.C.h.p h h 5 g O V #.#.D V ",
"n n 4 6 4.6.6.h.4.4.#.o.O.5 O g 7 m & 4 h.6.6.2.2.6.=.5.3.5 8 h 7 < O c R D V B ",
"; g O ; e t + z 6 5 ; ; < % < - % < - : T e 4 q 4 7 % e b   - > O X X < g O g ; ",
"W i.i.a.:.! + j 5 e - - b Z i.C Y x C C Y - : j g > X j W j v v x x B T B O k g "
};
